<svg version="1.1" id="Layer_1" xmlns="http://www.w3.org/2000/svg" xmlns:xlink="http://www.w3.org/1999/xlink" x="0px" y="0px"
	 width="100%" viewBox="0 0 525 525" enable-background="new 0 0 525 525" xml:space="preserve">
<path fill="#010101" opacity="1.000000" stroke="none" 
	d="
M296.000000,526.000000 
	C197.356705,526.000000 99.213409,526.000000 1.035054,526.000000 
	C1.035054,351.065033 1.035054,176.130066 1.035054,1.097546 
	C175.893265,1.097546 350.786591,1.097546 525.839966,1.097546 
	C525.839966,175.999878 525.839966,350.999939 525.839966,526.000000 
	C449.463470,526.000000 372.981720,526.000000 296.000000,526.000000 
M205.628006,314.125671 
	C159.474991,340.789124 113.321983,367.452576 66.392891,394.564362 
	C76.176277,406.644897 85.469589,418.120300 94.780106,429.616913 
	C107.571144,422.229126 119.514442,415.328766 131.459778,408.431976 
	C174.385056,383.648438 217.300095,358.847076 260.280182,334.158966 
	C261.863708,333.249420 264.591217,332.538086 265.932098,333.279022 
	C278.287323,340.106171 290.454193,347.274261 302.992676,354.526337 
	C273.476959,371.566284 244.240417,388.442291 215.006607,405.322998 
	C185.800537,422.187653 156.597153,439.056976 125.715149,456.893066 
	C140.387024,464.766632 153.852753,471.866577 167.175797,479.224854 
	C170.850479,481.254395 173.697159,480.789276 177.209534,478.753082 
	C232.613556,446.634308 288.106689,414.669250 343.510864,382.550751 
	C346.438141,380.853790 348.543335,380.553284 351.517426,382.413025 
	C358.564148,386.819611 365.871429,390.809265 373.068237,394.976379 
	C379.352081,398.614868 385.628845,402.265533 392.210327,406.085907 
	C366.393127,428.867401 337.287567,443.784973 304.246094,451.046173 
	C301.369812,451.678284 298.369598,452.442474 295.847565,453.882080 
	C272.734589,467.074768 249.712952,480.427521 226.673370,493.748627 
	C225.643692,494.343994 224.697937,495.084442 223.383316,495.982697 
	C311.406342,513.504211 411.409912,472.061157 460.473175,394.124146 
	C459.787079,393.674011 459.119598,393.187286 458.408325,392.776398 
	C394.603546,355.916443 330.806793,319.042450 266.919952,282.325256 
	C265.364258,281.431122 262.378693,281.533691 260.776794,282.439270 
	C242.532776,292.753082 224.428391,303.313904 205.628006,314.125671 
M397.678223,68.821632 
	C361.888611,44.288647 322.366577,30.709373 278.660248,27.821892 
	C278.660248,29.348345 278.660248,30.313395 278.660248,31.278444 
	C278.660583,104.589302 278.681549,177.900192 278.589966,251.210922 
	C278.586090,254.323029 279.686737,255.854813 282.307373,257.362915 
	C338.818024,289.883514 395.269104,322.507538 451.732513,355.110260 
	C459.615967,359.662262 467.503204,364.207703 475.401550,368.763641 
	C522.449890,277.073242 505.699158,144.579407 397.678223,68.821632 
M231.179703,29.676695 
	C226.748169,30.413631 222.297546,31.051657 217.887848,31.901855 
	C79.549118,58.573864 -5.201721,203.732559 39.543068,337.542694 
	C43.093330,348.159851 47.648060,358.441132 51.781059,368.993591 
	C53.372353,368.234497 53.994678,367.988037 54.568127,367.656891 
	C118.383263,330.803986 182.179718,293.918610 246.055603,257.171356 
	C248.934357,255.515259 249.309769,253.594620 249.306427,250.756653 
	C249.249252,202.098877 249.267120,153.441010 249.268478,104.783173 
	C249.268524,103.324974 249.268478,101.866776 249.268478,99.960373 
	C235.333893,101.329163 222.297668,104.238899 209.498138,108.528786 
	C205.910751,109.731133 204.718735,111.276878 204.736481,115.126961 
	C204.904800,151.619568 204.771637,188.113586 204.938217,224.606201 
	C204.955139,228.309769 203.725739,230.170120 200.625366,231.949326 
	C160.371994,255.049103 120.197128,278.285645 79.993866,301.472809 
	C78.905563,302.100525 77.721115,302.561523 76.286552,303.239685 
	C66.728104,253.418106 73.928444,206.736908 100.426285,163.961395 
	C134.513321,108.934647 184.887665,79.220459 249.050476,72.191544 
	C249.050476,57.465408 249.050476,42.871716 249.050476,27.721827 
	C243.209076,28.328800 237.630432,28.908468 231.179703,29.676695 
z"/>
<path fill="#FDFDFD" opacity="1.000000" stroke="none" 
	d="
M205.957336,313.967194 
	C224.428391,303.313904 242.532776,292.753082 260.776794,282.439270 
	C262.378693,281.533691 265.364258,281.431122 266.919952,282.325256 
	C330.806793,319.042450 394.603546,355.916443 458.408325,392.776398 
	C459.119598,393.187286 459.787079,393.674011 460.473175,394.124146 
	C411.409912,472.061157 311.406342,513.504211 223.383316,495.982697 
	C224.697937,495.084442 225.643692,494.343994 226.673370,493.748627 
	C249.712952,480.427521 272.734589,467.074768 295.847565,453.882080 
	C298.369598,452.442474 301.369812,451.678284 304.246094,451.046173 
	C337.287567,443.784973 366.393127,428.867401 392.210327,406.085907 
	C385.628845,402.265533 379.352081,398.614868 373.068237,394.976379 
	C365.871429,390.809265 358.564148,386.819611 351.517426,382.413025 
	C348.543335,380.553284 346.438141,380.853790 343.510864,382.550751 
	C288.106689,414.669250 232.613556,446.634308 177.209534,478.753082 
	C173.697159,480.789276 170.850479,481.254395 167.175797,479.224854 
	C153.852753,471.866577 140.387024,464.766632 125.715149,456.893066 
	C156.597153,439.056976 185.800537,422.187653 215.006607,405.322998 
	C244.240417,388.442291 273.476959,371.566284 302.992676,354.526337 
	C290.454193,347.274261 278.287323,340.106171 265.932098,333.279022 
	C264.591217,332.538086 261.863708,333.249420 260.280182,334.158966 
	C217.300095,358.847076 174.385056,383.648438 131.459778,408.431976 
	C119.514442,415.328766 107.571144,422.229126 94.780106,429.616913 
	C85.469589,418.120300 76.176277,406.644897 66.392891,394.564362 
	C113.321983,367.452576 159.474991,340.789124 205.957336,313.967194 
z"/>
<path fill="#FEFEFE" opacity="1.000000" stroke="none" 
	d="
M397.984741,69.008881 
	C505.699158,144.579407 522.449890,277.073242 475.401550,368.763641 
	C467.503204,364.207703 459.615967,359.662262 451.732513,355.110260 
	C395.269104,322.507538 338.818024,289.883514 282.307373,257.362915 
	C279.686737,255.854813 278.586090,254.323029 278.589966,251.210922 
	C278.681549,177.900192 278.660583,104.589302 278.660248,31.278444 
	C278.660248,30.313395 278.660248,29.348345 278.660248,27.821892 
	C322.366577,30.709373 361.888611,44.288647 397.984741,69.008881 
M380.177673,262.309784 
	C403.861420,275.988556 427.545197,289.667328 451.422272,303.457733 
	C473.649811,196.835999 403.841461,104.661201 323.327087,82.041435 
	C323.269531,82.710220 323.164978,83.358719 323.164856,84.007233 
	C323.156891,131.314301 323.184174,178.621445 323.088165,225.928314 
	C323.082581,228.690094 324.088043,230.021866 326.366974,231.322739 
	C344.130524,241.462616 361.816772,251.737930 380.177673,262.309784 
z"/>
<path fill="#FDFDFD" opacity="1.000000" stroke="none" 
	d="
M231.615753,29.582417 
	C237.630432,28.908468 243.209076,28.328800 249.050476,27.721827 
	C249.050476,42.871716 249.050476,57.465408 249.050476,72.191544 
	C184.887665,79.220459 134.513321,108.934647 100.426285,163.961395 
	C73.928444,206.736908 66.728104,253.418106 76.286552,303.239685 
	C77.721115,302.561523 78.905563,302.100525 79.993866,301.472809 
	C120.197128,278.285645 160.371994,255.049103 200.625366,231.949326 
	C203.725739,230.170120 204.955139,228.309769 204.938217,224.606201 
	C204.771637,188.113586 204.904800,151.619568 204.736481,115.126961 
	C204.718735,111.276878 205.910751,109.731133 209.498138,108.528786 
	C222.297668,104.238899 235.333893,101.329163 249.268478,99.960373 
	C249.268478,101.866776 249.268524,103.324974 249.268478,104.783173 
	C249.267120,153.441010 249.249252,202.098877 249.306427,250.756653 
	C249.309769,253.594620 248.934357,255.515259 246.055603,257.171356 
	C182.179718,293.918610 118.383263,330.803986 54.568127,367.656891 
	C53.994678,367.988037 53.372353,368.234497 51.781059,368.993591 
	C47.648060,358.441132 43.093330,348.159851 39.543068,337.542694 
	C-5.201721,203.732559 79.549118,58.573864 217.887848,31.901855 
	C222.297546,31.051657 226.748169,30.413631 231.615753,29.582417 
z"/>
<path fill="#020202" opacity="1.000000" stroke="none" 
	d="
M379.852295,262.140594 
	C361.816772,251.737930 344.130524,241.462616 326.366974,231.322739 
	C324.088043,230.021866 323.082581,228.690094 323.088165,225.928314 
	C323.184174,178.621445 323.156891,131.314301 323.164856,84.007233 
	C323.164978,83.358719 323.269531,82.710220 323.327087,82.041435 
	C403.841461,104.661201 473.649811,196.835999 451.422272,303.457733 
	C427.545197,289.667328 403.861420,275.988556 379.852295,262.140594 
z"/>
</svg>